<?xml version="1.0" encoding="UTF-8" standalone="no"?>
<svg
   xmlns="http://www.w3.org/2000/svg"
   width="523"
   height="262"
   viewBox="0 0 523 262">
  <g>
    <path
       style="fill:none;stroke:#000000;stroke-width:1;stroke-linecap:butt;stroke-linejoin:miter;stroke-opacity:1;stroke-miterlimit:4;stroke-dasharray:none"
       d="m 108.20418,212.76102 c 24.72123,-11.75271 49.44154,-23.50499 79.12716,-45.99723 29.68561,-22.49224 64.33388,-55.72215 81.86166,-84.191675 17.52779,-28.469519 17.93303,-52.176219 11.04392,-63.017672 -6.88911,-10.841452 -21.07261,-8.815238 -37.58765,1.012538 -16.51504,9.827775 -35.35921,27.456192 -52.07641,49.137989 -16.71719,21.681796 -31.30623,47.41524 -40.12065,64.94292 -8.81442,17.52769 -11.8538,26.84847 -15.39985,39.81698 -3.54604,12.9685 -7.59847,29.58346 -6.48384,35.35812 1.11463,5.77465 7.39602,0.70902 12.86757,-0.20234 5.47156,-0.91136 10.13195,2.33065 9.82729,8.5107 -0.30466,6.18006 -5.57292,15.2982 -11.34777,22.28875 -5.77484,6.99056 -12.05623,11.85357 -15.50094,11.75281 -3.44471,-0.10076 -4.05259,-5.1664 -0.60779,-10.43543 3.4448,-5.26904 10.94195,-10.73993 23.20138,-16.7176 12.25944,-5.97768 29.27998,-12.46169 54.71058,-14.8931 25.43061,-2.43141 59.26906,-0.81041 89.66381,2.83707 30.39476,3.64749 57.34395,9.321 82.36869,9.01678 25.02474,-0.30422 48.12405,-6.58561 65.85412,-12.76588 17.73008,-6.18027 30.09023,-12.25903 42.45022,-18.33772"
       id="path849" />
  </g>
</svg>
